# xmcd CD database file
#
# Track frame offsets:
#	150
#	12381
#	29847
#	44203
#	55699
#	67011
#	78992
#
# Disc length: 1419 seconds
#
# Revision: 0
# Processed by: cddbd v1.4PL0 Copyright (c) Steve Scherf et al.
# Submitted via: CDex 1.40Release
#
DISCID=61058907
DTITLE=Jesse Dayton - Live In Las Vegas Bootleg
DYEAR=2003
DGENRE=Country
TTITLE0=Kissing Abilene Goodbye
TTITLE1=Tall Walkin' Texas Trash
TTITLE2=One Year, Three Months, A Week To The Day
TTITLE3=Jesus Pick Me Up
TTITLE4=Dope Smoking Song
TTITLE5=Arkansas Chrome
TTITLE6=Old Faithful
EXTD=YEAR: 2003 ID3G: 2
EXTT0=
EXTT1=
EXTT2=
EXTT3=
EXTT4=
EXTT5=
EXTT6=
PLAYORDER=
